<svg width="24" height="24" viewBox="0 0 24 24" fill="none" xmlns="http://www.w3.org/2000/svg">
<path opacity="0.4" d="M21.04 7.19L12 12.42L2.95996 7.19C3.35996 6.45 3.93996 5.8 4.58996 5.44L9.92996 2.48C11.07 1.84 12.93 1.84 14.07 2.48L19.41 5.44C20.06 5.8 20.64 6.45 21.04 7.19Z" fill="currentColor"/>
<path opacity="0.6" d="M12 12.4199V21.9999C11.25 21.9999 10.5 21.8399 9.93001 21.5199L4.59001 18.5599C3.38001 17.8899 2.39001 16.2099 2.39001 14.8299V9.16994C2.39001 8.52994 2.61001 7.82994 2.96001 7.18994L12 12.4199Z" fill="currentColor"/>
<path d="M21.61 9.16994V14.8299C21.61 16.2099 20.62 17.8899 19.41 18.5599L14.07 21.5199C13.5 21.8399 12.75 21.9999 12 21.9999V12.4199L21.04 7.18994C21.39 7.82994 21.61 8.52994 21.61 9.16994Z" fill="currentColor"/>
</svg>
