<svg xmlns="http://www.w3.org/2000/svg" viewBox="0 0 128 128">
  <defs>
    <clipPath id="rounded">
      <rect width="128" height="128" rx="18"/>
    </clipPath>
    <filter id="soft-shadow" x="-10%" y="-10%" width="120%" height="120%">
      <feDropShadow dx="0" dy="3" stdDeviation="3" flood-color="#000" flood-opacity=".18"/>
    </filter>
  </defs>
  <g clip-path="url(#rounded)">
    <rect width="128" height="42.67" fill="#239f40"/>
    <rect y="42.67" width="128" height="42.66" fill="#fff"/>
    <rect y="85.33" width="128" height="42.67" fill="#da0000"/>
    <path d="M0 42.67h128M0 85.33h128" stroke="#111" stroke-opacity=".08" stroke-width="2"/>
    <g opacity=".18" fill="#fff">
      <circle cx="10" cy="22" r="2.2"/>
      <circle cx="22" cy="22" r="2.2"/>
      <circle cx="34" cy="22" r="2.2"/>
      <circle cx="46" cy="22" r="2.2"/>
      <circle cx="82" cy="22" r="2.2"/>
      <circle cx="94" cy="22" r="2.2"/>
      <circle cx="106" cy="22" r="2.2"/>
      <circle cx="118" cy="22" r="2.2"/>
    </g>
    <g opacity=".18" fill="#fff">
      <circle cx="10" cy="106" r="2.2"/>
      <circle cx="22" cy="106" r="2.2"/>
      <circle cx="34" cy="106" r="2.2"/>
      <circle cx="46" cy="106" r="2.2"/>
      <circle cx="82" cy="106" r="2.2"/>
      <circle cx="94" cy="106" r="2.2"/>
      <circle cx="106" cy="106" r="2.2"/>
      <circle cx="118" cy="106" r="2.2"/>
    </g>
    <g filter="url(#soft-shadow)">
      <circle cx="64" cy="64" r="19" fill="#fff" stroke="#da0000" stroke-width="3"/>
      <text x="64" y="72" text-anchor="middle" font-family="Tahoma, Arial, sans-serif" font-size="24" font-weight="700" fill="#da0000">فا</text>
    </g>
  </g>
  <rect x="1" y="1" width="126" height="126" rx="17" fill="none" stroke="#111" stroke-opacity=".14" stroke-width="2"/>
</svg>
